HIERARCHY
ROOT Hips
{
	OFFSET -80.168388 91.772041 -268.984589
	CHANNELS 6 Xposition Yposition Zposition Xrotation Yrotation Zrotation 
	JOINT RightUpLeg
	{
		OFFSET 0.103457 1.857818 10.548502
		CHANNELS 3 Xrotation Yrotation Zrotation
		JOINT RightLeg
		{
			OFFSET 43.500000 -0.000011 -0.000004
			CHANNELS 3 Xrotation Yrotation Zrotation
			JOINT RightFoot
			{
				OFFSET 42.372192 -0.000004 -0.000008
				CHANNELS 3 Xrotation Yrotation Zrotation
				JOINT RightToe
				{
					OFFSET 17.300014 0.000006 0.000001
					CHANNELS 3 Xrotation Yrotation Zrotation
					End Site
					{
						OFFSET 0.000000 0.000000 0.000000
					}
				}
			}
		}
	}
	JOINT LeftUpLeg
	{
		OFFSET 0.103457 1.857817 -10.548505
		CHANNELS 3 Xrotation Yrotation Zrotation
		JOINT LeftLeg
		{
			OFFSET 43.500046 -0.000004 0.000011
			CHANNELS 3 Xrotation Yrotation Zrotation
			JOINT LeftFoot
			{
				OFFSET 42.372257 0.000000 0.000015
				CHANNELS 3 Xrotation Yrotation Zrotation
				JOINT LeftToe
				{
					OFFSET 17.300003 -0.000000 0.000002
					CHANNELS 3 Xrotation Yrotation Zrotation
					End Site
					{
						OFFSET 0.000000 0.000000 0.000000
					}
				}
			}
		}
	}
	JOINT Spine
	{
		OFFSET 6.901961 -2.603721 -0.000001
		CHANNELS 3 Xrotation Yrotation Zrotation
		JOINT Spine1
		{
			OFFSET 12.588108 0.000002 -0.000001
			CHANNELS 3 Xrotation Yrotation Zrotation
			JOINT Spine2
			{
				OFFSET 12.343199 -0.000020 0.000006
				CHANNELS 3 Xrotation Yrotation Zrotation
				JOINT Neck
				{
					OFFSET 25.832905 0.000017 0.000000
					CHANNELS 3 Xrotation Yrotation Zrotation
					JOINT Head
					{
						OFFSET 11.766604 -0.000006 0.000004
						CHANNELS 3 Xrotation Yrotation Zrotation
						End Site
						{
							OFFSET 0.000000 0.000000 0.000000
						}
					}
				}
				JOINT RightShoulder
				{
					OFFSET 19.745903 -1.480350 6.000100
					CHANNELS 3 Xrotation Yrotation Zrotation
					JOINT RightArm
					{
						OFFSET 11.284130 -0.000016 -0.000016
						CHANNELS 3 Xrotation Yrotation Zrotation
						JOINT RightForeArm
						{
							OFFSET 33.000046 0.000004 0.000031
							CHANNELS 3 Xrotation Yrotation Zrotation
							JOINT RightHand
							{
								OFFSET 25.199999 0.000027 0.000001
								CHANNELS 3 Xrotation Yrotation Zrotation
								End Site
								{
									OFFSET 0.000000 0.000000 0.000000
								}
							}
						}
					}
				}
				JOINT LeftShoulder
				{
					OFFSET 19.746094 -1.480375 -6.000080
					CHANNELS 3 Xrotation Yrotation Zrotation
					JOINT LeftArm
					{
						OFFSET 11.284131 -0.000016 -0.000017
						CHANNELS 3 Xrotation Yrotation Zrotation
						JOINT LeftForeArm
						{
							OFFSET 33.000095 0.000009 0.000020
							CHANNELS 3 Xrotation Yrotation Zrotation
							JOINT LeftHand
							{
								OFFSET 25.199789 0.000132 0.000423
								CHANNELS 3 Xrotation Yrotation Zrotation
								End Site
								{
									OFFSET 0.000000 0.000000 0.000000
								}
							}
						}
					}
				}
			}
		}
	}
}
MOTION
Frames: 15
Frame Time: 0.033333
-23.340799 87.393692 324.687988 89.052273 1.664859 39.697114 -165.493421 -3.711902 151.781229 -23.874236 -2.637666 -8.322723 80.603971 2.029867 -16.896151 21.454555 0.003112 0.000017 149.744330 7.235311 -156.285260 -38.970614 -1.217877 12.672880 76.610441 -7.711453 4.726708 21.454553 -0.003091 -0.000001 8.194031 0.131923 -0.943103 6.372659 0.315447 -1.877527 6.054730 0.303959 -1.879400 17.188265 10.981775 -1.449067 -12.007636 -3.652849 -0.138855 -155.707399 -73.549642 -26.327997 -5.889330 59.819200 6.013562 -65.854048 -12.638899 2.195788 8.187869 -5.815008 9.748647 -168.433216 80.165609 13.308569 -36.976947 -57.546844 32.232093 -86.324773 4.755742 -2.475454 7.390334 18.759728 -2.356896 
-26.702471 86.262573 324.692200 88.326668 0.556784 32.716886 -165.556409 -5.115203 148.707958 -29.440742 -1.052482 -9.589789 79.282719 1.791010 -20.756622 21.454557 0.003097 0.000013 151.361432 4.254898 -154.328097 -37.424796 -0.488332 12.168131 75.730706 -8.037145 2.186215 21.454551 -0.003092 -0.000000 8.134451 0.082528 -0.781153 6.254650 0.207035 -1.556717 5.936689 0.197496 -1.557940 17.868764 11.889251 -0.553803 -12.268801 -5.137243 1.233528 -153.954622 -72.147227 -28.159014 5.485002 58.630098 18.839205 -59.556251 -13.343987 2.002016 9.528705 -6.136760 7.008496 -167.046087 80.471643 14.716018 -43.888292 -55.960119 31.973444 -79.460283 8.796340 -2.458533 5.460454 17.459707 -11.193370 
-30.005610 85.192284 324.669800 87.234493 -1.107887 25.608092 -167.373745 -7.799495 147.020163 -38.933537 1.402899 -11.136620 74.198619 1.045791 -23.848483 21.454563 0.003112 0.000019 152.610414 0.676692 -154.705724 -39.139224 2.481417 9.898096 78.971317 -8.835665 -7.536814 21.454551 -0.003091 -0.000000 8.179700 0.180660 -0.437272 6.345133 0.384980 -0.864020 6.027070 0.379621 -0.866334 17.828069 12.230828 0.061049 -12.493367 -6.289554 2.275130 -153.659012 -70.861232 -28.494810 12.082317 56.640699 29.563910 -51.433954 -13.180151 1.705971 10.568229 -4.784300 5.375028 -165.803812 80.484893 15.976729 -49.071812 -54.368996 30.755631 -72.837909 12.118722 -2.408951 4.527206 15.796650 -19.309710 
-33.434582 84.203529 324.783295 85.882402 -2.457825 18.721803 -170.570041 -9.942506 149.358178 -51.440723 3.385658 -13.589172 69.294141 3.873292 -17.648661 21.454565 0.003105 0.000017 153.846309 -2.934006 -156.608629 -42.576066 3.235229 8.103380 82.415754 -7.646644 -9.019983 21.454555 -0.003091 0.000001 8.470482 0.330197 -0.062692 6.927922 0.663585 -0.105562 6.609796 0.662798 -0.109572 17.135150 11.862668 0.450715 -12.714225 -7.139099 3.044972 -154.348997 -69.817968 -27.809808 14.884900 55.707197 38.335396 -42.762336 -12.197601 1.376786 10.278754 -1.345007 7.352158 -168.257079 80.704935 13.486632 -51.915544 -52.938232 29.450143 -67.943594 13.913535 -2.332501 6.789416 13.233690 -25.101160 
-36.836712 83.495583 324.987305 84.461559 -3.538664 13.150514 -175.198041 -11.877300 156.566937 -65.332337 3.057772 -12.682562 64.634224 6.057958 -8.140027 21.454563 0.003107 0.000014 156.049154 -6.267901 -158.672575 -44.944748 2.913765 6.854415 85.223911 -6.672885 -9.799132 21.454553 -0.003092 -0.000000 8.946172 0.528532 0.145001 7.881272 1.046009 0.325611 7.563127 1.047819 0.319282 16.100562 11.084210 0.608865 -12.979264 -7.688456 3.496553 -155.487399 -69.362688 -26.646298 15.735199 56.838099 45.379890 -35.406929 -11.150071 1.121308 9.309695 4.020420 15.488980 -174.655122 81.153644 6.999494 -52.024578 -51.831239 27.590575 -65.497539 14.315431 -2.262622 11.391141 10.359349 -28.353171 
-40.088139 83.333443 325.137085 83.459017 -4.659699 9.039307 178.598860 -12.549393 165.330371 -77.760932 2.134622 -6.773951 69.452642 3.614053 -3.449531 21.454553 0.003108 0.000016 158.941903 -9.138596 -160.972273 -45.417199 2.755588 6.157511 87.057031 -6.045241 -9.980856 21.454551 -0.003091 0.000000 9.381359 0.750381 0.258356 8.754330 1.479112 0.572743 8.436120 1.482406 0.563791 15.055935 10.323691 0.431342 -13.141467 -7.777875 3.424703 -156.118809 -69.518355 -25.991503 16.071913 59.347602 50.303110 -31.232720 -10.913291 1.016292 9.531399 10.536201 28.975633 179.686281 81.405794 1.267896 -49.551240 -51.326911 23.853099 -64.859237 14.181179 -2.228294 14.503388 8.550948 -30.525741 
-43.326370 83.898148 325.271698 83.239932 -5.493188 5.224488 171.527866 -11.889497 172.207142 -86.226958 2.383929 -3.188963 72.399985 2.021282 -0.465072 21.454555 0.003110 0.000017 162.546508 -11.466704 -164.243524 -43.494177 2.974831 5.655027 87.706302 -5.657721 -10.072579 21.454555 -0.003092 0.000000 9.606203 0.828801 0.488267 9.207814 1.616160 1.041002 8.889637 1.622281 1.031215 14.259094 9.648008 -0.003007 -12.959270 -7.385965 2.868382 -155.480309 -69.767978 -26.644592 16.956199 61.397493 53.097894 -31.094419 -11.626629 1.059927 11.621569 16.135712 40.636938 178.926818 81.372586 0.497817 -45.502720 -51.698388 18.198409 -64.739934 14.212386 -2.225771 13.987449 8.018817 -32.929937 
-46.622280 85.083961 325.381805 83.833107 -5.648499 0.623291 164.666763 -10.745301 175.945618 -90.051700 2.917140 -3.175823 70.763936 2.074310 -0.221599 21.454558 0.003108 0.000016 166.848872 -12.933197 -168.674418 -39.379131 3.245521 4.931712 87.280802 -5.260268 -10.316011 21.454555 -0.003091 0.000000 9.578631 0.641220 0.895870 9.154690 1.209619 1.839717 8.836661 1.220568 1.832373 13.719385 8.822505 -0.378362 -12.374360 -6.821963 2.255353 -153.767106 -69.668312 -28.413394 18.583900 61.743489 54.159603 -34.052892 -12.341581 1.168563 13.495343 18.179462 43.995311 -178.790980 81.266615 2.808697 -40.848483 -53.046446 11.838569 -64.360927 14.271049 -2.214983 11.656261 7.671925 -34.697057 
-49.939190 86.517433 325.452606 84.987736 -5.188610 -4.498596 158.192495 -9.551698 177.135273 -90.159132 3.363473 -6.425608 69.119766 4.403504 -0.309829 21.454558 0.003108 0.000018 171.439620 -13.349305 -173.561213 -33.878302 3.313385 3.937004 86.078381 -4.763349 -10.568821 21.454553 -0.003093 0.000000 9.351951 0.266021 1.315143 8.696100 0.432582 2.646521 8.378377 0.448414 2.643857 13.049053 7.715441 -0.441625 -11.533704 -6.480061 2.015635 -151.824013 -69.294708 -30.427004 20.218912 60.500702 53.996815 -37.909848 -12.299561 1.256050 12.205261 15.778425 38.122154 -176.961500 81.305254 4.663388 -35.797325 -54.987172 5.380130 -63.722673 13.854322 -2.161624 10.317068 6.618355 -34.437015 
-53.298309 87.738029 325.539612 86.364204 -4.404289 -9.420992 152.367218 -8.830004 177.288338 -87.153323 3.493486 -10.531391 69.923181 7.111270 -1.087805 21.454570 0.003110 0.000017 175.718624 -12.917009 -178.545981 -28.251980 3.282578 3.196429 84.745593 -4.384363 -10.493762 21.454550 -0.003092 -0.000000 9.031579 -0.150800 1.595802 8.044680 -0.411962 3.177247 7.727092 -0.392913 3.179668 11.765143 6.440354 -0.147208 -10.576668 -6.528534 2.278045 -150.211883 -68.987199 -32.098792 21.317113 58.520118 53.236526 -41.144660 -11.878753 1.311669 8.565978 10.634284 27.599019 -176.591522 81.584007 5.041581 -30.335069 -56.677070 -1.706620 -62.949537 12.962219 -2.070901 10.422726 5.106552 -32.808216 
-56.787529 88.737030 325.664886 87.550225 -3.040959 -13.882995 147.668785 -7.949005 177.019338 -81.378719 3.186700 -12.903368 70.424776 8.646659 -1.703920 21.454551 0.003110 0.000016 179.803364 -11.293900 176.854170 -22.748865 3.218168 2.629200 83.415092 -4.062767 -10.167742 21.454551 -0.003092 -0.000000 8.730775 -0.609813 1.702934 7.429710 -1.327399 3.363471 7.112111 -1.307211 3.371408 9.778307 5.151429 0.456598 -9.492260 -6.871253 2.937790 -149.022789 -68.976564 -33.325586 21.714992 56.657000 51.893004 -43.682789 -11.699090 1.369717 5.570721 5.398423 17.240775 -177.454079 82.202098 4.175821 -24.926138 -57.542636 -9.634048 -61.955034 12.055212 -1.971296 10.610637 3.611473 -32.035343 
-60.344898 89.199791 325.797485 88.468818 -1.901689 -17.649692 144.240577 -7.516800 177.017207 -73.266968 2.516037 -13.552581 70.578920 9.181785 -1.587933 21.454558 0.003108 0.000019 -176.840400 -9.134600 173.608123 -18.643015 3.570152 1.884765 82.685601 -3.601032 -9.983835 21.454550 -0.003093 0.000000 8.515063 -0.929146 1.683818 6.990020 -1.957943 3.309025 6.672299 -1.938074 3.320768 7.371643 3.871498 1.291127 -8.257557 -7.319539 3.809723 -148.287123 -69.279995 -34.073912 21.489594 55.195387 49.573496 -45.879497 -11.917681 1.447882 4.519948 2.007772 9.535907 -179.760457 83.257062 1.859275 -19.913177 -57.650219 -17.692328 -60.875680 11.451238 -1.889791 10.107218 2.058264 -33.842997 
-63.966888 89.177834 325.862305 88.918299 -1.067882 -20.786499 142.436314 -7.322799 177.253996 -63.085519 1.626057 -11.592859 70.518507 7.759062 -1.774702 21.454560 0.003108 0.000017 -174.046717 -6.725695 171.285367 -16.243387 4.444183 1.157637 82.930927 -3.112794 -9.994968 21.454553 -0.003091 0.000000 8.465901 -1.114557 1.603430 6.888547 -2.322222 3.138454 6.570682 -2.303375 3.152404 4.878264 2.637558 2.253923 -7.117773 -7.806901 4.763301 -148.158920 -69.739155 -34.190493 19.988699 54.046310 45.512409 -47.647652 -12.280711 1.525390 4.757799 0.992833 5.967006 175.971204 84.526576 -2.423487 -15.012196 -57.287662 -24.965731 -60.126189 11.177134 -1.843446 9.255763 0.148608 -38.494249 
-67.631233 88.917847 325.784912 88.677384 -0.406779 -23.312286 143.075319 -6.852205 178.124613 -50.293780 0.504430 -7.910541 70.165406 5.012771 -2.191827 21.454560 0.003109 0.000016 -171.371099 -4.260899 169.257743 -15.158300 5.412198 0.805220 83.800745 -2.808637 -9.939198 21.454551 -0.003092 0.000000 8.636019 -1.250254 1.484283 7.228377 -2.590468 2.888439 6.910370 -2.573125 2.904014 2.696259 1.619829 3.229825 -6.510935 -8.330417 5.738018 -148.793403 -70.199605 -33.522005 16.454196 52.874598 39.604903 -48.524915 -12.519331 1.568453 5.203850 1.331086 6.452045 169.715994 85.540114 -8.696609 -9.933346 -56.633231 -30.826669 -59.762441 11.134940 -1.827215 8.767495 -1.859551 -44.635293 
-71.505699 88.295120 325.483093 87.906324 -0.316435 -25.276491 145.676884 -6.070095 -179.639098 -36.522333 -1.109568 -4.526341 70.180228 3.034782 -0.942187 21.454560 0.003108 0.000017 -168.726177 -2.406296 167.965703 -15.807831 5.983038 0.473913 85.291939 -2.395104 -9.591392 21.454553 -0.003093 -0.000000 8.959537 -1.303142 1.365753 7.877282 -2.695974 2.640436 7.559177 -2.680125 2.656657 1.435484 1.006326 4.089966 -6.561662 -8.802656 6.652795 -150.150890 -70.663389 -32.110290 11.330889 51.251110 33.086683 -48.145962 -12.663150 1.566194 5.495253 1.591564 9.464125 163.529414 86.060302 -14.900975 -4.597004 -55.881691 -35.396458 -58.988253 11.250869 -1.806843 8.757874 -3.057020 -49.763099 
